#N canvas 0 28 1920 1029 12;
#X obj 1168 1067 output~;
#X msg 1658 962 exponential 32 10 5000;
#X msg 1661 849 linear 8 75 100;
#X msg 1660 1009 exponential 8 50 175;
#X msg 1658 986 exponential 64 1000 10;
#X msg 1521 706 reset;
#X msg 1661 873 linear 32 100 105;
#X msg 1660 896 linear 64 10 15;
#X msg 1660 917 linear 8 1 5;
#X msg 1660 937 linear 64 4 5;
#X floatatom 113 330 3 0 0 0 - - -, f 3;
#X obj 77 384 osc~;
#X obj 554 358 osc~;
#X obj 440 515 +~;
#X floatatom 591 330 5 0 0 0 - - -, f 5;
#X obj 601 181 bng 25 250 50 0 empty empty empty 17 7 0 10 -262144
-1 -1;
#X msg 1583 786 Reverb + Settings;
#X text 298 278 attack;
#X obj 327 399 line~;
#X obj 295 308 bng 15 250 50 0 empty empty empty 0 -6 0 8 -262144 -1
-1;
#X msg 345 309 stop;
#X obj 211 214 bng 22 250 50 0 empty empty empty 17 7 0 10 -262144
-1 -1;
#X text 789 785 feedback gain;
#X obj 895 845 +~;
#X obj 733 716 delread~ delay2 250;
#X text 442 691 Delay based on global tick;
#X obj 700 857 delwrite~ delay2 32000;
#X obj 1365 -47 table Colundi 36;
#X obj 76 295 tabread;
#X msg 136 294 set Colundi;
#X obj 552 301 tabread;
#X msg 616 300 set Colundi;
#X obj 125 454 *~;
#X text 755 265 attack;
#X obj 745 388 line~;
#X obj 743 293 bng 15 250 50 0 empty empty empty 0 -6 0 8 -262144 -1
-1;
#X msg 799 289 stop;
#X obj 554 415 *~;
#X obj 1374 760 fdn~ 24 400;
#X obj 1137 972 +~;
#X obj 1290 923 +~;
#X text 1857 875 Reverb;
#X obj 76 359 +~;
#X msg 1443 841 linear 7 13 23 37;
#X obj 830 187 bng 15 250 50 0 empty empty empty 17 7 0 10 -262144
-1 -1;
#X obj 999 167 bng 15 250 50 0 empty empty empty 0 -6 0 8 -262144 -1
-1;
#X obj 1005 499 *~;
#X text 1333 187 KICK DRUM WOOHO;
#X msg 330 365 0 40;
#X obj 911 753 *~;
#X obj 201 125 edge~;
#X obj 214 186 bng 15 250 50 0 empty empty empty 17 7 0 10 -262144
-1 -1;
#X obj 141 -42 bng 26 250 50 0 empty empty empty 17 7 0 10 -262144
-1 -1;
#X obj 200 50 phasor~ 700;
#X floatatom 57 -13 5 0 0 0 - - -, f 5;
#X obj 200 101 expr~ $v1>1;
#X obj 200 75 *~ 2;
#X obj 1062 333 tabread;
#X msg 1120 333 set Colundi;
#X floatatom 1059 359 5 0 0 0 - - -, f 5;
#X text 12 -16 BPM;
#X floatatom 150 3 5 0 0 0 - - -, f 5;
#X obj 11 11 expr 1/((60)/$f1);
#X floatatom 239 25 5 0 0 0 - - -, f 5;
#X text 9 -40 Sequencer v2;
#X obj 227 -3 Divider;
#X obj 322 121 edge~;
#X obj 319 179 bng 21 250 50 0 empty empty empty 17 7 0 10 -262144
-1 -1;
#X obj 321 46 phasor~ 700;
#X obj 321 97 expr~ $v1>1;
#X obj 321 71 *~ 2;
#X floatatom 358 20 5 0 0 0 - - -, f 5;
#X obj 348 -7 Divider;
#X obj 447 119 edge~;
#X obj 460 180 bng 15 250 50 0 empty empty empty 17 7 0 10 -262144
-1 -1;
#X obj 446 44 phasor~ 700;
#X obj 446 95 expr~ $v1>1;
#X obj 446 69 *~ 2;
#X floatatom 481 18 5 0 0 0 - - -, f 5;
#X obj 473 -9 Divider;
#X obj 1058 389 osc~ 480;
#X obj 1345 403 *~;
#X obj 1380 404 osc~ 480;
#X obj 562 122 edge~;
#X obj 575 183 bng 15 250 50 0 empty empty empty 17 7 0 10 -262144
-1 -1;
#X obj 561 47 phasor~ 700;
#X obj 561 98 expr~ $v1>1;
#X obj 561 72 *~ 2;
#X floatatom 604 21 5 0 0 0 - - -, f 5;
#X obj 588 -6 Divider;
#X obj 1198 163 bng 15 250 50 0 empty empty empty 17 7 0 10 -262144
-1 -1;
#X obj 971 895 +~;
#X obj 1235 735 lop~ 3000 1;
#X obj 6 36 expr (60*1000)/$f1;
#X floatatom 8 62 5 0 0 0 - - -, f 5;
#X text 53 61 ms / quarter;
#X msg 283 336 60 10;
#X msg 705 323 77 10;
#X msg 745 346 0 100;
#X text 962 281 attack;
#X obj 954 406 line~;
#X obj 950 309 bng 15 250 50 0 empty empty empty 0 -6 0 8 -262144 -1
-1;
#X msg 1006 305 stop;
#X msg 952 362 0 500;
#X msg 912 339 50 10;
#X text 1324 293 attack;
#X obj 1303 402 line~;
#X obj 1278 220 bng 15 250 50 0 empty empty empty 0 -6 0 8 -262144
-1 -1;
#X msg 1343 328 stop;
#X obj 1299 347 del 10;
#X msg 1300 371 0 129;
#X obj 709 785 hip~ 300 1;
#X text 1419 300 attack;
#X obj 1394 361 line~;
#X obj 1397 257 bng 15 250 50 0 empty empty empty 0 -6 0 8 -262144
-1 -1;
#X msg 1475 296 stop;
#X obj 1464 324 del 10;
#X msg 1466 344 0 32;
#X obj 204 24 *;
#X obj 325 20 *;
#X obj 450 18 *;
#X obj 565 21 *;
#X obj 557 272 + 1;
#X obj 1009 681 *~ 0.15;
#X text 1060 215 Deep FM;
#X text 707 233 Deep Sine;
#X text 174 357 Hi Sine;
#X obj 1644 412 *~;
#X text 1623 302 attack;
#X obj 1602 411 line~;
#X obj 1577 229 bng 15 250 50 0 empty empty empty 0 -6 0 8 -262144
-1 -1;
#X msg 1642 337 stop;
#X obj 1696 266 bng 15 250 50 0 empty empty empty 0 -6 0 8 -262144
-1 -1;
#X text 1632 196 HIHAZ DRUM WOOHO;
#X obj 690 119 edge~;
#X obj 689 44 phasor~ 700;
#X obj 689 95 expr~ $v1>1;
#X obj 716 -9 Divider;
#X obj 691 152 bng 20 250 50 0 empty empty empty 17 7 0 10 -262144
-1 -1;
#X obj 1367 554 +~;
#X obj 1689 406 noise~;
#X obj 689 69 *~ 2;
#X obj 1598 356 del 2;
#X msg 1599 380 0 12;
#X obj 554 384 *~ 0.2;
#X msg 1370 -13 \; Colundi 0 18.35 20.6 21.83 24.5 27.5 29.14 32.7
36.71 41.2 43.65 49 55 58.27 65.41 73.42 82.41 87.31 98 110 116.54
130.81 146.83 164.81 174.61 196 220 233.08 261.63 293.66 329.63 349.23
392 440 466.16 523.25 587.33 659.25;
#X obj 1061 308 + 1;
#X text 1490 -39 Actually Aeolian;
#X obj 1057 280 random 10;
#X obj 555 243 random 20;
#X obj 648 691 * 6;
#X msg 1555 326 146.83 1;
#X msg 1253 316 120 8.33;
#X msg 1398 325 220 1.33;
#X obj 745 322 del 100;
#X obj 74 327 * 4;
#X obj 78 268 + 0;
#X obj 76 243 random 36;
#X obj 960 337 del 850;
#X obj 689 18 * 4;
#X obj 805 19 0.5;
#X obj 327 339 del 80;
#X obj 1305 476 *~ 0;
#X obj 1604 485 *~ 0;
#X obj 555 330 * 1;
#X obj 731 750 *~ 0;
#X obj 1328 799 *~ 0.15;
#X obj 1382 839 *~ 0.15;
#X obj 1173 804 hip~ 200 1;
#X obj 77 415 *~ 0.2;
#X connect 1 0 38 0;
#X connect 2 0 38 0;
#X connect 3 0 38 0;
#X connect 4 0 38 0;
#X connect 5 0 38 0;
#X connect 6 0 38 0;
#X connect 7 0 38 0;
#X connect 8 0 38 0;
#X connect 9 0 38 0;
#X connect 10 0 42 0;
#X connect 11 0 169 0;
#X connect 12 0 144 0;
#X connect 13 0 49 1;
#X connect 14 0 12 0;
#X connect 15 0 35 0;
#X connect 15 0 149 0;
#X connect 18 0 32 1;
#X connect 19 0 96 0;
#X connect 19 0 161 0;
#X connect 20 0 161 0;
#X connect 21 0 19 0;
#X connect 21 0 157 0;
#X connect 23 0 26 0;
#X connect 23 0 91 0;
#X connect 24 0 165 0;
#X connect 28 0 155 0;
#X connect 29 0 28 0;
#X connect 30 0 164 0;
#X connect 31 0 30 0;
#X connect 32 0 13 0;
#X connect 34 0 37 1;
#X connect 35 0 97 0;
#X connect 35 0 154 0;
#X connect 36 0 154 0;
#X connect 37 0 13 1;
#X connect 38 0 166 0;
#X connect 38 1 167 0;
#X connect 39 0 0 0;
#X connect 40 0 0 1;
#X connect 42 0 11 0;
#X connect 43 0 38 0;
#X connect 44 0 45 0;
#X connect 45 0 101 0;
#X connect 45 0 148 0;
#X connect 46 0 123 0;
#X connect 48 0 18 0;
#X connect 49 0 23 0;
#X connect 50 0 51 0;
#X connect 51 0 21 0;
#X connect 52 0 54 0;
#X connect 53 0 56 0;
#X connect 54 0 62 0;
#X connect 54 0 93 0;
#X connect 55 0 50 0;
#X connect 56 0 55 0;
#X connect 57 0 59 0;
#X connect 58 0 57 0;
#X connect 59 0 80 0;
#X connect 61 0 118 0;
#X connect 61 0 119 0;
#X connect 61 0 120 0;
#X connect 61 0 121 0;
#X connect 61 0 159 0;
#X connect 62 0 61 0;
#X connect 63 0 118 1;
#X connect 66 0 67 0;
#X connect 67 0 44 0;
#X connect 68 0 70 0;
#X connect 69 0 66 0;
#X connect 70 0 69 0;
#X connect 71 0 119 1;
#X connect 73 0 74 0;
#X connect 74 0 15 0;
#X connect 75 0 77 0;
#X connect 76 0 73 0;
#X connect 77 0 76 0;
#X connect 78 0 120 1;
#X connect 80 0 46 0;
#X connect 81 0 162 0;
#X connect 82 0 81 0;
#X connect 83 0 84 0;
#X connect 84 0 90 0;
#X connect 85 0 87 0;
#X connect 86 0 83 0;
#X connect 87 0 86 0;
#X connect 88 0 121 1;
#X connect 90 0 107 0;
#X connect 90 0 114 0;
#X connect 91 0 39 0;
#X connect 91 0 40 0;
#X connect 92 0 38 0;
#X connect 93 0 94 0;
#X connect 94 0 150 0;
#X connect 96 0 18 0;
#X connect 97 0 34 0;
#X connect 98 0 34 0;
#X connect 100 0 46 1;
#X connect 101 0 104 0;
#X connect 101 0 158 0;
#X connect 102 0 158 0;
#X connect 103 0 100 0;
#X connect 104 0 100 0;
#X connect 106 0 81 1;
#X connect 107 0 152 0;
#X connect 107 0 109 0;
#X connect 108 0 109 0;
#X connect 109 0 110 0;
#X connect 110 0 106 0;
#X connect 111 0 23 1;
#X connect 113 0 82 0;
#X connect 114 0 153 0;
#X connect 114 0 116 0;
#X connect 115 0 116 0;
#X connect 116 0 117 0;
#X connect 117 0 113 0;
#X connect 118 0 53 0;
#X connect 119 0 68 0;
#X connect 120 0 75 0;
#X connect 121 0 85 0;
#X connect 122 0 30 0;
#X connect 123 0 49 0;
#X connect 127 0 163 0;
#X connect 129 0 127 1;
#X connect 130 0 151 0;
#X connect 130 0 142 0;
#X connect 131 0 142 0;
#X connect 132 0 140 0;
#X connect 134 0 138 0;
#X connect 135 0 141 0;
#X connect 136 0 134 0;
#X connect 138 0 130 0;
#X connect 138 0 132 0;
#X connect 139 0 91 1;
#X connect 140 0 127 0;
#X connect 141 0 136 0;
#X connect 142 0 143 0;
#X connect 143 0 129 0;
#X connect 144 0 37 0;
#X connect 146 0 57 0;
#X connect 148 0 146 0;
#X connect 149 0 122 0;
#X connect 150 0 24 0;
#X connect 151 0 129 0;
#X connect 152 0 106 0;
#X connect 153 0 113 0;
#X connect 154 0 98 0;
#X connect 155 0 10 0;
#X connect 156 0 28 0;
#X connect 157 0 156 0;
#X connect 158 0 103 0;
#X connect 159 0 135 0;
#X connect 160 0 135 1;
#X connect 161 0 48 0;
#X connect 162 0 139 0;
#X connect 163 0 139 1;
#X connect 164 0 14 0;
#X connect 165 0 111 0;
#X connect 166 0 39 1;
#X connect 167 0 40 1;
#X connect 168 0 92 0;
#X connect 169 0 32 0;
