#N canvas 0 60 1920 997 12;
#X obj 928 1093 output~;
#X msg 1747 1060 exponential 32 10 5000;
#X msg 1750 947 linear 8 75 100;
#X msg 1749 1107 exponential 8 50 175;
#X msg 1747 1084 exponential 64 1000 10;
#X msg 1566 858 reset;
#X msg 1750 971 linear 32 100 105;
#X msg 1749 994 linear 64 10 15;
#X msg 1749 1015 linear 8 1 5;
#X msg 1749 1035 linear 64 4 5;
#X floatatom 113 330 3 0 0 0 - - -, f 3;
#X obj 77 384 osc~;
#X obj 554 358 osc~;
#X floatatom 591 330 5 0 0 0 - - -, f 5;
#X obj 601 181 bng 25 250 50 0 empty empty empty 17 7 0 10 -262144
-1 -1;
#X msg 1672 884 Reverb + Settings;
#X text 298 278 attack;
#X obj 327 399 line~;
#X obj 295 308 bng 15 250 50 0 empty empty empty 0 -6 0 8 -262144 -1
-1;
#X msg 345 309 stop;
#X obj 211 214 bng 22 250 50 0 empty empty empty 17 7 0 10 -262144
-1 -1;
#X text 545 790 feedback gain;
#X obj 674 865 +~;
#X obj 414 724 delread~ delay2 250;
#X obj 415 860 delwrite~ delay2 32000;
#X obj 1365 -47 table Colundi 36;
#X obj 76 295 tabread;
#X msg 136 294 set Colundi;
#X obj 552 301 tabread;
#X msg 616 300 set Colundi;
#X obj 125 454 *~;
#X text 755 265 attack;
#X obj 745 388 line~;
#X obj 743 293 bng 15 250 50 0 empty empty empty 0 -6 0 8 -262144 -1
-1;
#X msg 799 289 stop;
#X obj 554 415 *~;
#X obj 1463 858 fdn~ 24 400;
#X obj 914 1081 +~;
#X obj 1004 1061 +~;
#X text 1946 973 Reverb;
#X obj 76 359 +~;
#X msg 1751 1141 linear 7 13 23 37;
#X obj 830 187 bng 15 250 50 0 empty empty empty 17 7 0 10 -262144
-1 -1;
#X obj 999 167 bng 15 250 50 0 empty empty empty 0 -6 0 8 -262144 -1
-1;
#X obj 1005 499 *~;
#X text 1333 187 KICK DRUM WOOHO;
#X msg 330 365 0 40;
#X obj 201 125 edge~;
#X obj 214 186 bng 15 250 50 0 empty empty empty 17 7 0 10 -262144
-1 -1;
#X obj 141 -42 bng 26 250 50 0 empty empty empty 17 7 0 10 -262144
-1 -1;
#X obj 200 50 phasor~ 700;
#X floatatom 46 -16 5 0 0 0 - - -, f 5;
#X obj 200 101 expr~ $v1>1;
#X obj 200 75 *~ 2;
#X obj 1062 333 tabread;
#X msg 1120 333 set Colundi;
#X floatatom 1059 359 5 0 0 0 - - -, f 5;
#X text 12 -16 BPM;
#X floatatom 150 3 5 0 0 0 - - -, f 5;
#X obj 11 11 expr 1/((60)/$f1);
#X floatatom 240 23 5 0 0 0 - - -, f 5;
#X text 9 -40 Sequencer v2;
#X obj 227 -3 Divider;
#X obj 322 121 edge~;
#X obj 319 179 bng 21 250 50 0 empty empty empty 17 7 0 10 -262144
-1 -1;
#X obj 321 46 phasor~ 700;
#X obj 321 97 expr~ $v1>1;
#X obj 321 71 *~ 2;
#X floatatom 358 20 5 0 0 0 - - -, f 5;
#X obj 348 -7 Divider;
#X obj 447 119 edge~;
#X obj 460 180 bng 15 250 50 0 empty empty empty 17 7 0 10 -262144
-1 -1;
#X obj 446 44 phasor~ 700;
#X obj 446 95 expr~ $v1>1;
#X obj 446 69 *~ 2;
#X obj 473 -9 Divider;
#X obj 1058 430 osc~ 480;
#X obj 1345 403 *~;
#X obj 1380 404 osc~ 480;
#X obj 562 122 edge~;
#X obj 575 183 bng 15 250 50 0 empty empty empty 17 7 0 10 -262144
-1 -1;
#X obj 561 47 phasor~ 700;
#X obj 561 98 expr~ $v1>1;
#X obj 561 72 *~ 2;
#X floatatom 601 25 5 0 0 0 - - -, f 5;
#X obj 588 -6 Divider;
#X obj 1198 163 bng 15 250 50 0 empty empty empty 17 7 0 10 -262144
-1 -1;
#X obj 758 896 +~;
#X obj 6 36 expr (60*1000)/$f1;
#X floatatom 8 62 5 0 0 0 - - -, f 5;
#X text 53 61 ms / quarter;
#X text 962 281 attack;
#X obj 954 406 line~;
#X obj 950 309 bng 15 250 50 0 empty empty empty 0 -6 0 8 -262144 -1
-1;
#X msg 1006 305 stop;
#X text 1324 293 attack;
#X obj 1303 402 line~;
#X obj 1278 220 bng 15 250 50 0 empty empty empty 0 -6 0 8 -262144
-1 -1;
#X msg 1343 328 stop;
#X obj 1299 347 del 10;
#X msg 1300 371 0 129;
#X obj 465 790 hip~ 300 1;
#X text 1419 300 attack;
#X obj 1394 361 line~;
#X obj 1397 257 bng 15 250 50 0 empty empty empty 0 -6 0 8 -262144
-1 -1;
#X msg 1475 296 stop;
#X obj 1464 324 del 10;
#X msg 1466 344 0 32;
#X obj 204 24 *;
#X obj 325 20 *;
#X obj 450 18 *;
#X obj 565 21 *;
#X obj 557 272 + 1;
#X obj 1009 681 *~ 0.15;
#X text 1060 215 Deep FM;
#X text 707 233 Deep Sine;
#X text 174 357 Hi Sine;
#X obj 1644 412 *~;
#X text 1623 302 attack;
#X obj 1602 411 line~;
#X obj 1577 229 bng 15 250 50 0 empty empty empty 0 -6 0 8 -262144
-1 -1;
#X msg 1642 337 stop;
#X obj 1696 266 bng 15 250 50 0 empty empty empty 0 -6 0 8 -262144
-1 -1;
#X text 1632 196 HIHAZ DRUM WOOHO;
#X obj 690 119 edge~;
#X obj 689 44 phasor~ 700;
#X obj 689 95 expr~ $v1>1;
#X obj 716 -9 Divider;
#X obj 691 152 bng 20 250 50 0 empty empty empty 17 7 0 10 -262144
-1 -1;
#X obj 1367 554 +~;
#X obj 1689 406 noise~;
#X obj 689 69 *~ 2;
#X obj 1598 356 del 2;
#X msg 1370 -13 \; Colundi 0 18.35 20.6 21.83 24.5 27.5 29.14 32.7
36.71 41.2 43.65 49 55 58.27 65.41 73.42 82.41 87.31 98 110 116.54
130.81 146.83 164.81 174.61 196 220 233.08 261.63 293.66 329.63 349.23
392 440 466.16 523.25 587.33 659.25;
#X obj 1062 308 + 1;
#X obj 555 243 random 20;
#X msg 1253 316 120 8.33;
#X msg 1398 325 220 1.33;
#X obj 74 327 * 4;
#X obj 78 268 + 0;
#X obj 76 243 random 36;
#X obj 805 19 0.5;
#X obj 1391 772 hip~ 200 1;
#X text 1490 -39 Actually D Aeolian;
#X obj 555 330 * 6;
#X obj 1070 388 * 8;
#X obj 960 337 del 60;
#X obj 889 -180 bng 15 250 50 0 empty empty empty 20 8 0 8 -262144
-1 -1;
#X obj 889 -74 bng 15 250 50 0 empty empty empty 20 8 0 8 -262144 -1
-1;
#X obj 934 -74 bng 15 250 50 0 empty empty empty 20 8 0 8 -262144 -1
-1;
#X obj 979 -74 bng 15 250 50 0 empty empty empty 20 8 0 8 -262144 -1
-1;
#X msg 889 -54 1;
#X msg 934 -54 2;
#X msg 979 -54 3;
#X obj 889 -14 s state;
#X obj 889 -289 bng 20 250 50 0 empty empty empty 20 8 0 8 -262144
-1 -1;
#X obj 923 -289 r state;
#X obj 889 -227 sel 1 2 3;
#X obj 1031 -180 bng 15 250 50 0 empty empty empty 20 8 0 8 -262144
-1 -1;
#X obj 1031 -74 bng 15 250 50 0 empty empty empty 20 8 0 8 -262144
-1 -1;
#X obj 1076 -74 bng 15 250 50 0 empty empty empty 20 8 0 8 -262144
-1 -1;
#X obj 1121 -74 bng 15 250 50 0 empty empty empty 20 8 0 8 -262144
-1 -1;
#X msg 1031 -54 1;
#X msg 1076 -54 2;
#X msg 1121 -54 3;
#X obj 1031 -14 s state;
#X obj 1178 -180 bng 15 250 50 0 empty empty empty 20 8 0 8 -262144
-1 -1;
#X obj 1178 -74 bng 15 250 50 0 empty empty empty 20 8 0 8 -262144
-1 -1;
#X obj 1223 -74 bng 15 250 50 0 empty empty empty 20 8 0 8 -262144
-1 -1;
#X obj 1268 -74 bng 15 250 50 0 empty empty empty 20 8 0 8 -262144
-1 -1;
#X msg 1178 -54 1;
#X msg 1223 -54 2;
#X msg 1268 -54 3;
#X obj 1178 -14 s state;
#X msg 1012 -289 \; state 1;
#X obj 889 -253 f 1;
#X obj 889 -155 random 100;
#X obj 889 -128 moses 30;
#X obj 934 -101 moses 60;
#X obj 1031 -156 random 100;
#X obj 1031 -128 moses 10;
#X obj 1076 -101 moses 60;
#X obj 1178 -156 random 100;
#X obj 1178 -128 moses 70;
#X obj 1223 -101 moses 80;
#X floatatom 923 -264 3 0 0 0 - - -, f 3;
#X text 1017 -307 reset;
#X text 886 -307 STEP;
#X obj 222 -125 edge~;
#X obj 235 -64 bng 15 250 50 0 empty empty empty 17 7 0 10 -262144
-1 -1;
#X obj 221 -200 phasor~ 700;
#X obj 221 -149 expr~ $v1>1;
#X obj 221 -175 *~ 2;
#X obj 248 -253 MasterClock;
#X obj 745 322 del 50;
#X obj 327 339 del 40;
#X msg 952 362 0 80;
#X msg 745 346 0 50;
#X obj 715 726 +~;
#X obj 440 515 +~;
#X obj 563 -89 * 2;
#X msg 283 336 60 40;
#X msg 705 323 77 40;
#X msg 912 339 50 60;
#X text 1216 851 feedback gain;
#X obj 1085 785 delread~ delay2 250;
#X obj 1046 887 delwrite~ delay2 32000;
#X obj 1136 851 hip~ 300 1;
#X obj 887 884 +~;
#X text 1073 821 Delay R;
#X text 245 766 Delay L;
#X obj 819 731 +~;
#X obj 404 696 * 0.32;
#X obj 1075 757 * 0.33;
#X obj 1158 816 *~ 0.3;
#X obj 487 755 *~ 0.3;
#X obj 1495 769 hip~ 200 1;
#X obj 1057 280 random 13;
#X obj 1604 485 *~ 0.01;
#X msg 1555 326 146.83 15;
#X msg 1599 380 0 457;
#X obj 690 21 * 0.5;
#X obj 1394 795 lop~ 1500 1;
#X obj 1498 792 lop~ 1500 1;
#X obj 554 384 *~ 0;
#X obj 452 261 + 5;
#X obj 77 415 *~ 0.15;
#X obj 1306 476 *~ 0.1;
#X obj 1410 901 *~ 0.01;
#X obj 1467 904 *~ 0.01;
#X connect 1 0 36 0;
#X connect 2 0 36 0;
#X connect 3 0 36 0;
#X connect 4 0 36 0;
#X connect 5 0 36 0;
#X connect 6 0 36 0;
#X connect 7 0 36 0;
#X connect 8 0 36 0;
#X connect 9 0 36 0;
#X connect 10 0 40 0;
#X connect 11 0 226 0;
#X connect 12 0 224 0;
#X connect 13 0 12 0;
#X connect 14 0 33 0;
#X connect 14 0 135 0;
#X connect 17 0 30 1;
#X connect 18 0 201 0;
#X connect 18 0 195 0;
#X connect 19 0 195 0;
#X connect 20 0 140 0;
#X connect 20 0 18 0;
#X connect 22 0 24 0;
#X connect 22 0 87 0;
#X connect 23 0 215 0;
#X connect 27 0 26 0;
#X connect 28 0 144 0;
#X connect 28 0 225 1;
#X connect 29 0 28 0;
#X connect 30 0 199 0;
#X connect 32 0 35 1;
#X connect 33 0 202 0;
#X connect 33 0 194 0;
#X connect 34 0 194 0;
#X connect 35 0 199 1;
#X connect 36 0 228 0;
#X connect 36 1 229 0;
#X connect 37 0 0 0;
#X connect 38 0 0 1;
#X connect 40 0 11 0;
#X connect 41 0 36 0;
#X connect 42 0 43 0;
#X connect 43 0 93 0;
#X connect 43 0 217 0;
#X connect 44 0 113 0;
#X connect 46 0 17 0;
#X connect 47 0 48 0;
#X connect 48 0 20 0;
#X connect 49 0 51 0;
#X connect 50 0 53 0;
#X connect 51 0 59 0;
#X connect 51 0 88 0;
#X connect 52 0 47 0;
#X connect 53 0 52 0;
#X connect 54 0 56 0;
#X connect 55 0 54 0;
#X connect 56 0 145 0;
#X connect 58 0 108 0;
#X connect 58 0 109 0;
#X connect 58 0 110 0;
#X connect 58 0 111 0;
#X connect 58 0 190 0;
#X connect 58 0 221 0;
#X connect 59 0 58 0;
#X connect 60 0 108 1;
#X connect 63 0 64 0;
#X connect 64 0 42 0;
#X connect 65 0 67 0;
#X connect 66 0 63 0;
#X connect 67 0 66 0;
#X connect 68 0 109 1;
#X connect 70 0 71 0;
#X connect 71 0 14 0;
#X connect 72 0 74 0;
#X connect 73 0 70 0;
#X connect 74 0 73 0;
#X connect 76 0 44 0;
#X connect 77 0 227 0;
#X connect 78 0 77 0;
#X connect 79 0 80 0;
#X connect 80 0 86 0;
#X connect 81 0 83 0;
#X connect 82 0 79 0;
#X connect 83 0 82 0;
#X connect 84 0 111 1;
#X connect 86 0 97 0;
#X connect 86 0 104 0;
#X connect 87 0 37 0;
#X connect 87 0 142 0;
#X connect 88 0 89 0;
#X connect 89 0 212 0;
#X connect 89 0 213 0;
#X connect 92 0 44 1;
#X connect 93 0 203 0;
#X connect 93 0 146 0;
#X connect 94 0 146 0;
#X connect 96 0 77 1;
#X connect 97 0 136 0;
#X connect 97 0 99 0;
#X connect 98 0 99 0;
#X connect 99 0 100 0;
#X connect 100 0 96 0;
#X connect 101 0 22 1;
#X connect 103 0 78 0;
#X connect 104 0 137 0;
#X connect 104 0 106 0;
#X connect 105 0 106 0;
#X connect 106 0 107 0;
#X connect 107 0 103 0;
#X connect 108 0 50 0;
#X connect 109 0 65 0;
#X connect 110 0 72 0;
#X connect 111 0 81 0;
#X connect 112 0 28 0;
#X connect 113 0 198 0;
#X connect 113 0 211 1;
#X connect 117 0 218 0;
#X connect 119 0 117 1;
#X connect 120 0 219 0;
#X connect 120 0 132 0;
#X connect 121 0 132 0;
#X connect 122 0 130 0;
#X connect 124 0 128 0;
#X connect 125 0 131 0;
#X connect 126 0 124 0;
#X connect 128 0 120 0;
#X connect 128 0 122 0;
#X connect 130 0 117 0;
#X connect 131 0 126 0;
#X connect 132 0 220 0;
#X connect 134 0 54 0;
#X connect 135 0 112 0;
#X connect 136 0 96 0;
#X connect 137 0 103 0;
#X connect 138 0 10 0;
#X connect 139 0 26 0;
#X connect 140 0 139 0;
#X connect 141 0 125 1;
#X connect 142 0 222 0;
#X connect 144 0 13 0;
#X connect 145 0 76 0;
#X connect 146 0 196 0;
#X connect 147 0 176 0;
#X connect 148 0 151 0;
#X connect 149 0 152 0;
#X connect 150 0 153 0;
#X connect 151 0 154 0;
#X connect 152 0 154 0;
#X connect 153 0 154 0;
#X connect 155 0 175 0;
#X connect 156 0 175 1;
#X connect 156 0 185 0;
#X connect 157 0 147 0;
#X connect 157 1 158 0;
#X connect 157 2 166 0;
#X connect 158 0 179 0;
#X connect 159 0 162 0;
#X connect 160 0 163 0;
#X connect 161 0 164 0;
#X connect 162 0 165 0;
#X connect 163 0 165 0;
#X connect 164 0 165 0;
#X connect 166 0 182 0;
#X connect 167 0 170 0;
#X connect 168 0 171 0;
#X connect 169 0 172 0;
#X connect 170 0 173 0;
#X connect 171 0 173 0;
#X connect 172 0 173 0;
#X connect 175 0 157 0;
#X connect 176 0 177 0;
#X connect 177 0 148 0;
#X connect 177 1 178 0;
#X connect 178 0 149 0;
#X connect 178 1 150 0;
#X connect 179 0 180 0;
#X connect 180 0 159 0;
#X connect 180 1 181 0;
#X connect 181 0 160 0;
#X connect 181 1 161 0;
#X connect 182 0 183 0;
#X connect 183 0 167 0;
#X connect 183 1 184 0;
#X connect 184 0 168 0;
#X connect 184 1 169 0;
#X connect 185 0 200 0;
#X connect 188 0 189 0;
#X connect 189 0 155 0;
#X connect 190 0 192 0;
#X connect 191 0 188 0;
#X connect 192 0 191 0;
#X connect 194 0 197 0;
#X connect 195 0 46 0;
#X connect 196 0 92 0;
#X connect 197 0 32 0;
#X connect 198 0 22 0;
#X connect 199 0 198 1;
#X connect 199 0 211 0;
#X connect 200 0 110 1;
#X connect 201 0 17 0;
#X connect 202 0 32 0;
#X connect 203 0 92 0;
#X connect 205 0 214 0;
#X connect 207 0 208 1;
#X connect 208 0 206 0;
#X connect 208 0 38 0;
#X connect 208 0 216 0;
#X connect 211 0 208 0;
#X connect 212 0 23 0;
#X connect 213 0 205 0;
#X connect 214 0 207 0;
#X connect 215 0 101 0;
#X connect 216 0 223 0;
#X connect 217 0 134 0;
#X connect 218 0 129 1;
#X connect 219 0 119 0;
#X connect 220 0 119 0;
#X connect 221 0 125 0;
#X connect 222 0 36 0;
#X connect 223 0 36 0;
#X connect 224 0 35 0;
#X connect 225 0 138 0;
#X connect 226 0 30 0;
#X connect 227 0 129 0;
#X connect 228 0 37 1;
#X connect 229 0 38 1;
