#N canvas 529 252 957 377 12;
#X floatatom 174 127 0 0 0 0 - - -;
#X obj 174 153 mtof;
#X obj 166 486 output~;
#X msg 174 101 60;
#X text 209 130 <-- choose a pitch;
#X text 210 101 <-- reset to middle C;
#X obj 174 234 osc~;
#X obj 215 210 * 2;
#X obj 215 234 osc~;
#X obj 279 234 osc~;
#X obj 279 210 * 3;
#X obj 343 235 osc~;
#X obj 343 211 * 4;
#X obj 279 259 *~ 0.2;
#X obj 175 361 +~;
#X obj 216 336 *~;
#X obj 251 337 tgl 15 0 empty empty empty 0 -6 0 8 -262144 -1 -1 0
1;
#X obj 216 287 +~;
#X obj 216 311 +~;
#N canvas 0 0 450 300 (subpatch) 0;
#X array tab.01.07 882 float 0 black black;
#X coords 0 1.02 881 -1.02 160 104 1;
#X restore 419 87 graph;
#X msg 258 367 bang;
#X text 307 366 <-- click to graph;
#X text 374 210 frequencies of harmonics;
#X text 385 235 four oscillators;
#X text 389 260 adjust amplitudes;
#X text 251 310 add the three overtones together;
#X obj 258 396 tabwrite~ tab.01.07;
#X obj 215 259 *~ 0.1;
#X obj 343 259 *~ 0.5;
#X text 271 336 <-- overtones ON/OFF;
#X text 420 190 ------ 0.02 seconds ------;
#X connect 0 0 1 0;
#X connect 1 0 6 0;
#X connect 1 0 7 0;
#X connect 1 0 10 0;
#X connect 1 0 12 0;
#X connect 3 0 0 0;
#X connect 6 0 14 0;
#X connect 7 0 8 0;
#X connect 8 0 27 0;
#X connect 9 0 13 0;
#X connect 10 0 9 0;
#X connect 11 0 28 0;
#X connect 12 0 11 0;
#X connect 13 0 17 1;
#X connect 14 0 2 0;
#X connect 14 0 2 1;
#X connect 14 0 26 0;
#X connect 15 0 14 1;
#X connect 16 0 15 1;
#X connect 17 0 18 0;
#X connect 18 0 15 0;
#X connect 20 0 26 0;
#X connect 27 0 17 0;
#X connect 28 0 18 1;
